<?xml version="1.0" standalone="no"?>
<!DOCTYPE svg PUBLIC "-//W3C//DTD SVG 20010904//EN"
 "http://www.w3.org/TR/2001/REC-SVG-20010904/DTD/svg10.dtd">
<svg version="1.0" xmlns="http://www.w3.org/2000/svg"
 width="150.000000pt" height="150.000000pt" viewBox="0 0 150.000000 150.000000"
 preserveAspectRatio="xMidYMid meet">

<g transform="translate(0.000000,150.000000) scale(0.100000,-0.100000)"
fill="#000000" stroke="none">
<path d="M768 1373 c7 -3 16 -2 19 1 4 3 -2 6 -13 5 -11 0 -14 -3 -6 -6z"/>
<path d="M456 1314 c-11 -29 -6 -81 9 -94 10 -8 15 -31 15 -71 0 -32 5 -61 10
-64 18 -11 11 -24 -16 -31 -25 -6 -26 -9 -23 -73 2 -40 9 -73 18 -84 21 -26 5
-33 -33 -15 -44 21 -56 9 -56 -54 0 -42 3 -50 25 -60 16 -7 24 -17 20 -26 -3
-7 -5 -34 -5 -58 0 -28 -4 -43 -10 -39 -6 4 -8 11 -5 16 3 5 -1 6 -10 3 -8 -4
-18 -24 -21 -45 -4 -21 -10 -39 -15 -39 -5 0 -9 -9 -9 -20 0 -25 -16 -26 -29
-3 -16 30 -25 6 -25 -68 l-1 -71 55 -50 c30 -27 96 -83 145 -123 50 -40 115
-94 145 -119 34 -28 65 -45 81 -46 33 0 332 104 323 112 -3 4 4 4 17 1 17 -5
20 -3 14 7 -5 9 -4 11 4 6 13 -8 107 20 117 35 3 6 0 17 -7 25 -12 14 -14 14
-20 -3 -7 -19 -36 -29 -359 -124 -52 -16 -96 -27 -98 -25 -4 5 -6 66 -4 108 2
22 9 29 50 42 81 27 365 106 381 106 9 1 30 7 46 16 l30 14 -37 -4 c-30 -4
-37 -1 -42 17 -7 29 -3 31 36 11 39 -20 35 -14 -13 19 l-35 24 -74 -34 c-41
-19 -77 -33 -79 -33 -2 1 -7 -3 -11 -10 -4 -6 -17 -12 -28 -13 -12 -1 -22 -5
-22 -10 0 -4 -4 -6 -9 -3 -5 3 -37 -6 -71 -20 -34 -14 -64 -23 -67 -21 -13 13
-14 75 -1 88 8 8 81 38 162 68 81 30 142 57 136 61 -8 5 -6 9 6 14 9 3 15 9
12 11 -2 3 -42 -9 -89 -26 -143 -53 -282 -90 -293 -79 -21 21 -2 121 28 143 7
6 4 7 -7 3 -9 -3 -24 -3 -33 1 -12 4 -10 9 13 24 26 18 26 19 6 19 -29 0 -36
14 -29 55 5 25 13 35 34 40 15 3 41 13 57 20 17 7 44 16 60 19 58 10 210 52
230 63 30 18 7 37 -28 24 -14 -6 -68 -20 -119 -31 -51 -11 -117 -27 -147 -35
-57 -15 -73 -13 -53 7 7 7 12 18 12 26 0 12 -3 12 -15 2 -12 -10 -15 -10 -15
2 0 26 24 47 65 57 126 30 269 72 285 84 19 13 19 14 -7 26 -21 10 -24 14 -13
21 21 13 5 23 -17 12 -18 -10 -220 -55 -302 -67 -52 -8 -61 1 -61 63 0 37 4
44 26 53 34 12 176 43 271 59 73 12 96 23 68 34 -11 4 -15 21 -15 64 0 36 -5
63 -12 69 -8 6 -39 5 -83 -3 l-70 -12 73 5 72 6 0 -65 0 -65 -37 -7 c-21 -3
-84 -13 -141 -21 -57 -8 -107 -17 -112 -20 -15 -9 -30 31 -30 79 0 39 3 46 23
51 12 3 51 12 87 20 60 13 61 14 15 9 -27 -2 -71 -7 -96 -10 -34 -5 -63 0
-118 20 -84 30 -97 32 -105 10z m106 -26 l66 -23 -24 -30 c-18 -23 -26 -27
-36 -17 -6 6 -20 12 -30 12 -11 0 -23 11 -28 25 -5 14 -16 25 -25 25 -16 0
-20 12 -8 23 9 10 12 9 85 -15z m423 -299 c-17 -4 -81 -18 -144 -33 -131 -30
-121 -29 -121 -17 0 4 19 13 43 19 166 42 223 52 242 43 5 -3 -4 -8 -20 -12z
m-545 -439 c5 0 14 -9 20 -20 19 -35 -5 -22 -38 22 -18 23 -32 49 -32 57 1 9
10 -1 21 -21 11 -21 24 -38 29 -38z m-75 -90 c1 -14 -3 -19 -12 -16 -7 3 -13
1 -13 -4 0 -6 -7 -10 -15 -10 -11 0 -15 11 -15 38 0 21 3 42 7 46 10 10 46
-30 48 -54z m449 -5 c-10 -8 -30 -14 -44 -14 -22 0 -21 2 10 14 47 18 58 18
34 0z m-197 -181 c18 -5 21 -13 20 -50 -1 -52 -13 -55 -51 -15 -20 21 -26 35
-21 50 7 22 16 25 52 15z"/>
<path d="M775 665 l-30 -14 30 6 c17 3 39 10 50 14 l20 8 -20 0 c-11 0 -33 -6
-50 -14z"/>
<path d="M1095 550 c-16 -7 -17 -9 -3 -9 9 -1 20 4 23 9 7 11 7 11 -20 0z"/>
</g>
</svg>
